STARTFONT 2.1
COMMENT
COMMENT Converted from OpenType font "highlander_std.otf" by "otf2bdf 3.0".
COMMENT
FONT -FreeType-ITC Highlander Std Book-Bold-I-Normal--17-120-100-100-P-92-ISO10646-1
SIZE 12 100 100
FONTBOUNDINGBOX 21 19 -3 -4
STARTPROPERTIES 19
FOUNDRY "FreeType"
FAMILY_NAME "ITC Highlander Std Book"
WEIGHT_NAME "Bold"
SLANT "I"
SETWIDTH_NAME "Normal"
ADD_STYLE_NAME ""
PIXEL_SIZE 17
POINT_SIZE 120
RESOLUTION_X 100
RESOLUTION_Y 100
SPACING "P"
AVERAGE_WIDTH 92
CHARSET_REGISTRY "ISO10646"
CHARSET_ENCODING "1"
FONT_ASCENT 11
FONT_DESCENT 5
COPYRIGHT "Copyright © 1993, 2001 Adobe Systems Incorporated.  All Rights Reserved."
_OTF_FONTFILE "highlander_std.otf"
_OTF_PSNAME "HighlanderStd-BoldItalic"
ENDPROPERTIES
CHARS 252
STARTCHAR 0020
ENCODING 32
SWIDTH 300 0
DWIDTH 5 0
BBX 0 0 0 0
BITMAP
ENDCHAR
STARTCHAR 0021
ENCODING 33
SWIDTH 420 0
DWIDTH 7 0
BBX 5 11 1 0
BITMAP
38
38
38
38
70
70
70
70
20
F0
E0
ENDCHAR
STARTCHAR 0022
ENCODING 34
SWIDTH 600 0
DWIDTH 10 0
BBX 5 5 4 6
BITMAP
D8
D8
D8
D8
90
ENDCHAR
STARTCHAR 0023
ENCODING 35
SWIDTH 600 0
DWIDTH 10 0
BBX 10 9 0 1
BITMAP
0CC0
0C80
3FC0
3FC0
1300
7F80
FF80
6600
6600
ENDCHAR
STARTCHAR 0024
ENCODING 36
SWIDTH 540 0
DWIDTH 9 0
BBX 8 13 1 -1
BITMAP
04
1C
7F
6A
68
78
3C
1E
16
96
FE
FC
20
ENDCHAR
STARTCHAR 0025
ENCODING 37
SWIDTH 720 0
DWIDTH 12 0
BBX 11 11 1 0
BITMAP
38C0
6CC0
CD80
FB00
7600
0C00
0DC0
1B60
3640
63C0
4000
ENDCHAR
STARTCHAR 0026
ENCODING 38
SWIDTH 600 0
DWIDTH 10 0
BBX 10 11 1 0
BITMAP
1F00
3F00
7000
7000
71C0
3300
6780
E300
E700
FE00
7800
ENDCHAR
STARTCHAR 0027
ENCODING 39
SWIDTH 420 0
DWIDTH 7 0
BBX 3 5 3 6
BITMAP
60
60
60
C0
40
ENDCHAR
STARTCHAR 0028
ENCODING 40
SWIDTH 360 0
DWIDTH 6 0
BBX 7 17 1 -3
BITMAP
06
0C
1C
18
30
70
60
E0
C0
C0
C0
C0
C0
C0
C0
C0
40
ENDCHAR
STARTCHAR 0029
ENCODING 41
SWIDTH 360 0
DWIDTH 6 0
BBX 7 17 -1 -3
BITMAP
0C
0C
06
06
06
06
06
0E
0C
0C
1C
18
38
30
60
C0
C0
ENDCHAR
STARTCHAR 002A
ENCODING 42
SWIDTH 420 0
DWIDTH 7 0
BBX 5 5 2 7
BITMAP
30
F8
70
F8
A0
ENDCHAR
STARTCHAR 002B
ENCODING 43
SWIDTH 600 0
DWIDTH 10 0
BBX 8 8 1 2
BITMAP
08
08
08
FF
FF
08
08
08
ENDCHAR
STARTCHAR 002C
ENCODING 44
SWIDTH 300 0
DWIDTH 5 0
BBX 5 4 -1 -2
BITMAP
18
38
30
E0
ENDCHAR
STARTCHAR 002D
ENCODING 45
SWIDTH 420 0
DWIDTH 7 0
BBX 5 2 1 3
BITMAP
F8
F8
ENDCHAR
STARTCHAR 002E
ENCODING 46
SWIDTH 300 0
DWIDTH 5 0
BBX 4 3 0 0
BITMAP
20
F0
E0
ENDCHAR
STARTCHAR 002F
ENCODING 47
SWIDTH 420 0
DWIDTH 7 0
BBX 8 14 0 -2
BITMAP
03
03
06
06
0C
0C
18
18
30
30
60
60
C0
C0
ENDCHAR
STARTCHAR 0030
ENCODING 48
SWIDTH 600 0
DWIDTH 10 0
BBX 9 11 1 0
BITMAP
1F00
3F00
7B80
7380
E380
E380
E380
E700
EF00
7E00
7C00
ENDCHAR
STARTCHAR 0031
ENCODING 49
SWIDTH 600 0
DWIDTH 10 0
BBX 6 11 3 0
BITMAP
1C
78
F8
B8
38
78
70
70
70
70
E0
ENDCHAR
STARTCHAR 0032
ENCODING 50
SWIDTH 600 0
DWIDTH 10 0
BBX 9 11 0 0
BITMAP
0F00
1F80
1380
0380
0780
0F00
1E00
3C00
7800
7F80
FF00
ENDCHAR
STARTCHAR 0033
ENCODING 51
SWIDTH 600 0
DWIDTH 10 0
BBX 8 11 1 0
BITMAP
1E
7F
67
07
3E
3F
07
07
0E
FE
F8
ENDCHAR
STARTCHAR 0034
ENCODING 52
SWIDTH 600 0
DWIDTH 10 0
BBX 9 11 1 0
BITMAP
0780
0F80
1F00
3700
6700
C700
FF80
FF80
0E00
0E00
0E00
ENDCHAR
STARTCHAR 0035
ENCODING 53
SWIDTH 600 0
DWIDTH 10 0
BBX 10 11 0 0
BITMAP
1FC0
1FC0
3800
3800
3F00
3F80
3380
0380
4780
FF00
7C00
ENDCHAR
STARTCHAR 0036
ENCODING 54
SWIDTH 600 0
DWIDTH 10 0
BBX 8 11 1 0
BITMAP
03
0F
1E
38
7E
7F
E7
E7
EF
7E
3C
ENDCHAR
STARTCHAR 0037
ENCODING 55
SWIDTH 600 0
DWIDTH 10 0
BBX 10 11 1 0
BITMAP
7FC0
7F80
4700
0700
0E00
1E00
1C00
3800
7800
7000
F000
ENDCHAR
STARTCHAR 0038
ENCODING 56
SWIDTH 600 0
DWIDTH 10 0
BBX 9 11 1 0
BITMAP
1E00
3F00
7380
7380
3F00
3E00
FF00
E700
C700
FE00
7C00
ENDCHAR
STARTCHAR 0039
ENCODING 57
SWIDTH 600 0
DWIDTH 10 0
BBX 8 11 2 0
BITMAP
3C
7E
EF
C7
C7
FE
7E
1C
78
F0
C0
ENDCHAR
STARTCHAR 003A
ENCODING 58
SWIDTH 300 0
DWIDTH 5 0
BBX 4 7 1 0
BITMAP
20
F0
E0
00
40
E0
C0
ENDCHAR
STARTCHAR 003B
ENCODING 59
SWIDTH 300 0
DWIDTH 5 0
BBX 5 9 0 -2
BITMAP
10
78
70
00
00
30
70
60
C0
ENDCHAR
STARTCHAR 003C
ENCODING 60
SWIDTH 600 0
DWIDTH 10 0
BBX 7 10 2 0
BITMAP
06
1E
3E
F8
E0
F0
7C
1E
0E
02
ENDCHAR
STARTCHAR 003D
ENCODING 61
SWIDTH 600 0
DWIDTH 10 0
BBX 8 5 1 3
BITMAP
FF
FF
00
FF
FF
ENDCHAR
STARTCHAR 003E
ENCODING 62
SWIDTH 600 0
DWIDTH 10 0
BBX 7 10 2 0
BITMAP
C0
E0
F8
3E
1E
1E
7C
F0
C0
80
ENDCHAR
STARTCHAR 003F
ENCODING 63
SWIDTH 420 0
DWIDTH 7 0
BBX 7 11 1 0
BITMAP
3C
7E
4E
0E
1C
38
70
60
20
E0
E0
ENDCHAR
STARTCHAR 0040
ENCODING 64
SWIDTH 780 0
DWIDTH 13 0
BBX 12 11 1 0
BITMAP
0FC0
1CE0
7030
67B0
DDB0
D9B0
DBA0
DDC0
E000
71C0
1F00
ENDCHAR
STARTCHAR 0041
ENCODING 65
SWIDTH 660 0
DWIDTH 11 0
BBX 11 11 -1 0
BITMAP
01C0
03C0
07C0
07C0
0DC0
1CE0
1FE0
3FE0
70E0
70E0
E0E0
ENDCHAR
STARTCHAR 0042
ENCODING 66
SWIDTH 660 0
DWIDTH 11 0
BBX 11 11 0 0
BITMAP
1F80
3FC0
38E0
39C0
3F80
7FC0
79E0
71E0
71C0
7F80
FF00
ENDCHAR
STARTCHAR 0043
ENCODING 67
SWIDTH 720 0
DWIDTH 12 0
BBX 11 11 1 0
BITMAP
07E0
1FE0
3E20
7800
F000
E000
E000
E040
F3C0
7FC0
3E00
ENDCHAR
STARTCHAR 0044
ENCODING 68
SWIDTH 720 0
DWIDTH 12 0
BBX 12 11 0 0
BITMAP
1F80
3FE0
38F0
3870
3870
3870
78F0
70E0
73E0
7FC0
FF00
ENDCHAR
STARTCHAR 0045
ENCODING 69
SWIDTH 540 0
DWIDTH 9 0
BBX 10 11 0 0
BITMAP
1FC0
3FC0
3800
3800
3F80
7F80
7800
7000
7000
7F80
FF00
ENDCHAR
STARTCHAR 0046
ENCODING 70
SWIDTH 480 0
DWIDTH 8 0
BBX 9 11 0 0
BITMAP
1F80
3F80
3800
3800
3800
3F00
7F00
7000
7000
7000
F000
ENDCHAR
STARTCHAR 0047
ENCODING 71
SWIDTH 780 0
DWIDTH 13 0
BBX 12 11 1 0
BITMAP
07F0
1FE0
3E20
7800
F000
E7E0
E7E0
E0E0
F3E0
7FC0
3C00
ENDCHAR
STARTCHAR 0048
ENCODING 72
SWIDTH 780 0
DWIDTH 13 0
BBX 13 11 0 0
BITMAP
1C38
3C38
3878
3870
3FF0
3FF0
78F0
70E0
70E0
70E0
F0E0
ENDCHAR
STARTCHAR 0049
ENCODING 73
SWIDTH 360 0
DWIDTH 6 0
BBX 6 11 0 0
BITMAP
1C
3C
38
38
38
38
78
70
70
70
F0
ENDCHAR
STARTCHAR 004A
ENCODING 74
SWIDTH 420 0
DWIDTH 7 0
BBX 10 14 -3 -3
BITMAP
01C0
03C0
0380
0380
0380
0380
0780
0700
0700
0F00
0E00
1E00
FC00
E000
ENDCHAR
STARTCHAR 004B
ENCODING 75
SWIDTH 720 0
DWIDTH 12 0
BBX 11 11 0 0
BITMAP
1C60
3CE0
39C0
3B80
3F00
7E00
7700
73C0
71C0
71E0
F0C0
ENDCHAR
STARTCHAR 004C
ENCODING 76
SWIDTH 540 0
DWIDTH 9 0
BBX 8 11 0 0
BITMAP
1C
3C
38
38
38
38
78
70
70
7F
FF
ENDCHAR
STARTCHAR 004D
ENCODING 77
SWIDTH 900 0
DWIDTH 15 0
BBX 14 11 0 0
BITMAP
1E1C
1E1C
1E3C
3E7C
367C
36FC
77DC
779C
679C
671C
E21C
ENDCHAR
STARTCHAR 004E
ENCODING 78
SWIDTH 780 0
DWIDTH 13 0
BBX 13 11 0 0
BITMAP
1C18
3C38
3E38
3F38
3730
37F0
73F0
73F0
71E0
60E0
E0E0
ENDCHAR
STARTCHAR 004F
ENCODING 79
SWIDTH 780 0
DWIDTH 13 0
BBX 12 11 1 0
BITMAP
07C0
1FE0
78F0
7070
F070
E070
E0F0
E0E0
F1C0
7F80
3F00
ENDCHAR
STARTCHAR 0050
ENCODING 80
SWIDTH 600 0
DWIDTH 10 0
BBX 11 11 0 0
BITMAP
1F80
3FE0
3CE0
38E0
38E0
39C0
7F80
7E00
7000
7000
F000
ENDCHAR
STARTCHAR 0051
ENCODING 81
SWIDTH 780 0
DWIDTH 13 0
BBX 12 13 1 -2
BITMAP
07C0
1FE0
7870
7070
F070
E070
E070
E7E0
F3C0
7F80
3F80
0180
0180
ENDCHAR
STARTCHAR 0052
ENCODING 82
SWIDTH 660 0
DWIDTH 11 0
BBX 11 11 0 0
BITMAP
1F80
3FE0
3CE0
38E0
38E0
3BC0
7F80
7F80
73C0
71E0
F0C0
ENDCHAR
STARTCHAR 0053
ENCODING 83
SWIDTH 480 0
DWIDTH 8 0
BBX 9 11 0 0
BITMAP
0F80
3F00
3800
7800
3C00
3E00
1E00
0F00
0E00
FE00
F800
ENDCHAR
STARTCHAR 0054
ENCODING 84
SWIDTH 540 0
DWIDTH 9 0
BBX 10 11 1 0
BITMAP
FFC0
FFC0
1C00
1C00
1C00
3C00
3800
3800
3800
7800
7800
ENDCHAR
STARTCHAR 0055
ENCODING 85
SWIDTH 780 0
DWIDTH 13 0
BBX 12 11 1 0
BITMAP
3870
7870
7070
70F0
F0E0
E0E0
E0E0
E1E0
F3C0
7FC0
3C00
ENDCHAR
STARTCHAR 0056
ENCODING 86
SWIDTH 600 0
DWIDTH 10 0
BBX 11 11 1 0
BITMAP
E0E0
E0E0
F1C0
7380
7380
7700
7600
7E00
7C00
3800
3000
ENDCHAR
STARTCHAR 0057
ENCODING 87
SWIDTH 900 0
DWIDTH 15 0
BBX 16 11 1 0
BITMAP
E387
E387
F38E
738C
739C
7798
77B8
7FF0
7DF0
39E0
31C0
ENDCHAR
STARTCHAR 0058
ENCODING 88
SWIDTH 600 0
DWIDTH 10 0
BBX 12 11 -1 0
BITMAP
1870
1CF0
1DE0
0FC0
0F80
0F00
1F80
3BC0
79C0
F1E0
60C0
ENDCHAR
STARTCHAR 0059
ENCODING 89
SWIDTH 540 0
DWIDTH 9 0
BBX 10 11 1 0
BITMAP
E1C0
E1C0
7380
7700
7E00
3C00
3C00
3800
3800
3800
7800
ENDCHAR
STARTCHAR 005A
ENCODING 90
SWIDTH 600 0
DWIDTH 10 0
BBX 11 11 0 0
BITMAP
7FE0
7FC0
0380
0780
0F00
0E00
1C00
3C00
3800
7FC0
FFC0
ENDCHAR
STARTCHAR 005B
ENCODING 91
SWIDTH 360 0
DWIDTH 6 0
BBX 8 17 0 -3
BITMAP
1F
1F
18
18
18
38
30
30
30
70
60
60
60
E0
C0
F0
F0
ENDCHAR
STARTCHAR 005C
ENCODING 92
SWIDTH 420 0
DWIDTH 7 0
BBX 3 14 2 -2
BITMAP
C0
40
40
40
60
60
60
60
60
60
60
60
20
20
ENDCHAR
STARTCHAR 005D
ENCODING 93
SWIDTH 360 0
DWIDTH 6 0
BBX 8 17 -1 -3
BITMAP
0F
0F
07
06
06
06
0E
0E
0C
0C
0C
1C
18
18
18
F8
F0
ENDCHAR
STARTCHAR 005E
ENCODING 94
SWIDTH 600 0
DWIDTH 10 0
BBX 8 6 1 5
BITMAP
3C
3C
7E
66
E7
E7
ENDCHAR
STARTCHAR 005F
ENCODING 95
SWIDTH 480 0
DWIDTH 8 0
BBX 8 1 0 -2
BITMAP
FF
ENDCHAR
STARTCHAR 0060
ENCODING 96
SWIDTH 480 0
DWIDTH 8 0
BBX 3 3 3 8
BITMAP
C0
60
60
ENDCHAR
STARTCHAR 0061
ENCODING 97
SWIDTH 600 0
DWIDTH 10 0
BBX 10 7 0 0
BITMAP
0F80
3FC0
7180
E380
E780
FBC0
7700
ENDCHAR
STARTCHAR 0062
ENCODING 98
SWIDTH 600 0
DWIDTH 10 0
BBX 10 11 0 0
BITMAP
3800
3800
3800
3800
7380
7780
79C0
7180
E380
7F00
3E00
ENDCHAR
STARTCHAR 0063
ENCODING 99
SWIDTH 480 0
DWIDTH 8 0
BBX 8 7 0 0
BITMAP
1F
3F
70
E0
E2
FE
7C
ENDCHAR
STARTCHAR 0064
ENCODING 100
SWIDTH 600 0
DWIDTH 10 0
BBX 11 11 0 0
BITMAP
00E0
00C0
01C0
01C0
0FC0
3FC0
7380
E380
E780
FBC0
7700
ENDCHAR
STARTCHAR 0065
ENCODING 101
SWIDTH 540 0
DWIDTH 9 0
BBX 9 7 0 0
BITMAP
1F00
3F80
7380
FF00
E100
7F00
3E00
ENDCHAR
STARTCHAR 0066
ENCODING 102
SWIDTH 360 0
DWIDTH 6 0
BBX 8 11 0 0
BITMAP
0F
1F
38
38
7E
FC
70
70
70
70
E0
ENDCHAR
STARTCHAR 0067
ENCODING 103
SWIDTH 480 0
DWIDTH 8 0
BBX 9 11 -1 -4
BITMAP
1E00
3F80
7300
3F00
1E00
7000
3F00
6F80
C380
7F00
3E00
ENDCHAR
STARTCHAR 0068
ENCODING 104
SWIDTH 600 0
DWIDTH 10 0
BBX 10 11 0 0
BITMAP
3800
3800
3800
3800
7780
7F80
7380
7380
E300
E7C0
E700
ENDCHAR
STARTCHAR 0069
ENCODING 105
SWIDTH 300 0
DWIDTH 5 0
BBX 5 10 0 0
BITMAP
38
38
00
70
70
70
70
E0
F8
E0
ENDCHAR
STARTCHAR 006A
ENCODING 106
SWIDTH 300 0
DWIDTH 5 0
BBX 9 14 -3 -4
BITMAP
0780
0700
0000
0E00
0E00
0E00
0E00
0E00
1C00
1C00
1C00
1800
F800
E000
ENDCHAR
STARTCHAR 006B
ENCODING 107
SWIDTH 600 0
DWIDTH 10 0
BBX 9 11 0 0
BITMAP
3800
3800
3800
3800
7380
7F80
7980
7700
EE00
E700
E180
ENDCHAR
STARTCHAR 006C
ENCODING 108
SWIDTH 300 0
DWIDTH 5 0
BBX 5 11 0 0
BITMAP
38
38
38
38
70
70
70
70
E0
F8
E0
ENDCHAR
STARTCHAR 006D
ENCODING 109
SWIDTH 900 0
DWIDTH 15 0
BBX 14 7 0 0
BITMAP
7738
7FFC
739C
7398
E338
E73C
E730
ENDCHAR
STARTCHAR 006E
ENCODING 110
SWIDTH 600 0
DWIDTH 10 0
BBX 10 7 0 0
BITMAP
7780
7F80
7380
7380
E300
E7C0
E700
ENDCHAR
STARTCHAR 006F
ENCODING 111
SWIDTH 540 0
DWIDTH 9 0
BBX 9 7 0 0
BITMAP
1F00
7F80
7380
F380
F380
7F00
3E00
ENDCHAR
STARTCHAR 0070
ENCODING 112
SWIDTH 600 0
DWIDTH 10 0
BBX 10 11 -1 -4
BITMAP
39C0
3FC0
3CC0
39C0
71C0
7F80
7F00
7000
7000
E000
E000
ENDCHAR
STARTCHAR 0071
ENCODING 113
SWIDTH 600 0
DWIDTH 10 0
BBX 10 11 0 -4
BITMAP
0F80
3FC0
7180
E380
E780
FB80
7700
0700
0700
0700
0E00
ENDCHAR
STARTCHAR 0072
ENCODING 114
SWIDTH 420 0
DWIDTH 7 0
BBX 7 7 0 0
BITMAP
76
7E
78
70
E0
E0
E0
ENDCHAR
STARTCHAR 0073
ENCODING 115
SWIDTH 360 0
DWIDTH 6 0
BBX 6 7 0 0
BITMAP
3C
7C
70
78
38
F8
F0
ENDCHAR
STARTCHAR 0074
ENCODING 116
SWIDTH 420 0
DWIDTH 7 0
BBX 7 10 0 0
BITMAP
18
38
38
7E
FC
70
70
70
7C
70
ENDCHAR
STARTCHAR 0075
ENCODING 117
SWIDTH 600 0
DWIDTH 10 0
BBX 10 7 0 0
BITMAP
31C0
7380
7380
7380
E780
FBC0
7700
ENDCHAR
STARTCHAR 0076
ENCODING 118
SWIDTH 480 0
DWIDTH 8 0
BBX 9 7 0 0
BITMAP
E380
E700
6600
7C00
7C00
7800
3000
ENDCHAR
STARTCHAR 0077
ENCODING 119
SWIDTH 720 0
DWIDTH 12 0
BBX 13 7 0 0
BITMAP
E718
6730
6770
7FE0
7BC0
7B80
3300
ENDCHAR
STARTCHAR 0078
ENCODING 120
SWIDTH 480 0
DWIDTH 8 0
BBX 9 7 -1 0
BITMAP
3980
3B00
1E00
1E00
3E00
7700
E700
ENDCHAR
STARTCHAR 0079
ENCODING 121
SWIDTH 480 0
DWIDTH 8 0
BBX 10 11 -1 -4
BITMAP
31C0
3980
3B00
3F00
3E00
1C00
1C00
3800
7000
7000
E000
ENDCHAR
STARTCHAR 007A
ENCODING 122
SWIDTH 420 0
DWIDTH 7 0
BBX 7 7 0 0
BITMAP
7E
7C
1C
38
70
FE
FE
ENDCHAR
STARTCHAR 007B
ENCODING 123
SWIDTH 360 0
DWIDTH 6 0
BBX 8 18 1 -3
BITMAP
01
0F
18
38
30
30
30
70
60
C0
60
60
E0
C0
C0
C0
F0
70
ENDCHAR
STARTCHAR 007C
ENCODING 124
SWIDTH 480 0
DWIDTH 8 0
BBX 3 17 3 -4
BITMAP
E0
E0
E0
E0
E0
E0
E0
E0
E0
E0
E0
E0
E0
E0
E0
E0
E0
ENDCHAR
STARTCHAR 007D
ENCODING 125
SWIDTH 360 0
DWIDTH 6 0
BBX 8 17 -2 -3
BITMAP
0E
07
03
03
03
07
06
07
03
06
0E
0C
0C
0C
1C
78
F0
ENDCHAR
STARTCHAR 007E
ENCODING 126
SWIDTH 660 0
DWIDTH 11 0
BBX 8 4 2 8
BITMAP
72
FF
FE
04
ENDCHAR
STARTCHAR 00A0
ENCODING 160
SWIDTH 300 0
DWIDTH 5 0
BBX 0 0 0 0
BITMAP
ENDCHAR
STARTCHAR 00A1
ENCODING 161
SWIDTH 420 0
DWIDTH 7 0
BBX 5 11 1 0
BITMAP
18
38
10
38
38
70
70
70
70
70
E0
ENDCHAR
STARTCHAR 00A2
ENCODING 162
SWIDTH 480 0
DWIDTH 8 0
BBX 7 10 1 0
BITMAP
04
1E
7E
78
E8
E8
EE
FC
10
10
ENDCHAR
STARTCHAR 00A3
ENCODING 163
SWIDTH 600 0
DWIDTH 10 0
BBX 11 11 0 0
BITMAP
07E0
0FC0
1C00
1C00
1F00
3F00
7800
3800
70C0
FF80
8F00
ENDCHAR
STARTCHAR 00A4
ENCODING 164
SWIDTH 600 0
DWIDTH 10 0
BBX 8 7 1 2
BITMAP
EF
7F
63
63
63
7F
7B
ENDCHAR
STARTCHAR 00A5
ENCODING 165
SWIDTH 600 0
DWIDTH 10 0
BBX 10 11 1 0
BITMAP
60C0
71C0
7380
7F00
3E00
3C00
7F00
3C00
FE00
3800
3800
ENDCHAR
STARTCHAR 00A6
ENCODING 166
SWIDTH 480 0
DWIDTH 8 0
BBX 3 14 3 -3
BITMAP
E0
E0
E0
E0
E0
E0
00
00
E0
E0
E0
E0
E0
E0
ENDCHAR
STARTCHAR 00A7
ENCODING 167
SWIDTH 600 0
DWIDTH 10 0
BBX 10 14 0 -3
BITMAP
0F80
1FC0
1800
1C00
3E00
7780
6380
7980
3F80
1F00
0700
4300
FF00
7E00
ENDCHAR
STARTCHAR 00A8
ENCODING 168
SWIDTH 480 0
DWIDTH 8 0
BBX 5 2 3 9
BITMAP
D8
D8
ENDCHAR
STARTCHAR 00A9
ENCODING 169
SWIDTH 840 0
DWIDTH 14 0
BBX 12 11 1 0
BITMAP
0F80
18E0
2130
4F90
DC10
9810
9810
DFB0
CF60
71C0
1F00
ENDCHAR
STARTCHAR 00AA
ENCODING 170
SWIDTH 600 0
DWIDTH 10 0
BBX 7 5 1 4
BITMAP
1E
76
6E
EC
7E
ENDCHAR
STARTCHAR 00AB
ENCODING 171
SWIDTH 540 0
DWIDTH 9 0
BBX 8 6 1 1
BITMAP
33
6E
DC
D8
D8
CC
ENDCHAR
STARTCHAR 00AC
ENCODING 172
SWIDTH 600 0
DWIDTH 10 0
BBX 7 5 2 3
BITMAP
FE
FE
FE
0E
0E
ENDCHAR
STARTCHAR 00AD
ENCODING 173
SWIDTH 420 0
DWIDTH 7 0
BBX 5 2 1 3
BITMAP
F8
F8
ENDCHAR
STARTCHAR 00AE
ENCODING 174
SWIDTH 840 0
DWIDTH 14 0
BBX 12 11 1 0
BITMAP
0F80
18E0
2030
4F90
CD90
9F90
9F10
DBB0
D960
71C0
1F00
ENDCHAR
STARTCHAR 00AF
ENCODING 175
SWIDTH 480 0
DWIDTH 8 0
BBX 6 2 2 9
BITMAP
7C
FC
ENDCHAR
STARTCHAR 00B0
ENCODING 176
SWIDTH 600 0
DWIDTH 10 0
BBX 6 5 3 7
BITMAP
38
6C
CC
4C
78
ENDCHAR
STARTCHAR 00B1
ENCODING 177
SWIDTH 600 0
DWIDTH 10 0
BBX 8 10 1 0
BITMAP
08
08
08
FF
FF
08
08
08
FF
FF
ENDCHAR
STARTCHAR 00B2
ENCODING 178
SWIDTH 420 0
DWIDTH 7 0
BBX 6 7 1 4
BITMAP
3C
6C
0C
18
70
FC
FC
ENDCHAR
STARTCHAR 00B3
ENCODING 179
SWIDTH 420 0
DWIDTH 7 0
BBX 6 7 1 4
BITMAP
38
4C
18
78
1C
98
F0
ENDCHAR
STARTCHAR 00B4
ENCODING 180
SWIDTH 480 0
DWIDTH 8 0
BBX 4 3 4 8
BITMAP
70
60
C0
ENDCHAR
STARTCHAR 00B5
ENCODING 181
SWIDTH 600 0
DWIDTH 10 0
BBX 11 11 -1 -4
BITMAP
18E0
39C0
39C0
39C0
73C0
7FE0
7980
6000
6000
E000
E000
ENDCHAR
STARTCHAR 00B6
ENCODING 182
SWIDTH 600 0
DWIDTH 10 0
BBX 9 13 1 -2
BITMAP
3F80
7F00
7700
F700
7700
7F00
3F00
0700
0700
0700
0600
0E00
3800
ENDCHAR
STARTCHAR 00B7
ENCODING 183
SWIDTH 300 0
DWIDTH 5 0
BBX 3 3 1 2
BITMAP
60
E0
40
ENDCHAR
STARTCHAR 00B8
ENCODING 184
SWIDTH 480 0
DWIDTH 8 0
BBX 3 4 2 -4
BITMAP
40
60
60
C0
ENDCHAR
STARTCHAR 00B9
ENCODING 185
SWIDTH 420 0
DWIDTH 7 0
BBX 4 7 3 4
BITMAP
70
E0
60
60
E0
C0
C0
ENDCHAR
STARTCHAR 00BA
ENCODING 186
SWIDTH 600 0
DWIDTH 10 0
BBX 6 5 2 4
BITMAP
78
EC
CC
DC
78
ENDCHAR
STARTCHAR 00BB
ENCODING 187
SWIDTH 480 0
DWIDTH 8 0
BBX 8 6 0 1
BITMAP
36
37
33
37
6E
DC
ENDCHAR
STARTCHAR 00BC
ENCODING 188
SWIDTH 1020 0
DWIDTH 17 0
BBX 12 11 3 0
BITMAP
6080
E180
6100
E300
C600
CC70
C8F0
1930
33F0
6060
4060
ENDCHAR
STARTCHAR 00BD
ENCODING 189
SWIDTH 1020 0
DWIDTH 17 0
BBX 14 11 2 0
BITMAP
3040
70C0
B080
7180
6300
6678
6C5C
0C38
1870
30F8
21F8
ENDCHAR
STARTCHAR 00BE
ENCODING 190
SWIDTH 1020 0
DWIDTH 17 0
BBX 15 11 1 0
BITMAP
3810
4C30
1860
78C0
1C86
998E
F336
066C
047E
0C0C
181C
ENDCHAR
STARTCHAR 00BF
ENCODING 191
SWIDTH 480 0
DWIDTH 8 0
BBX 8 11 0 0
BITMAP
07
0F
04
0E
0C
1C
38
70
E0
FE
78
ENDCHAR
STARTCHAR 00C0
ENCODING 192
SWIDTH 660 0
DWIDTH 11 0
BBX 11 14 -1 0
BITMAP
0300
0180
0000
01C0
03C0
07C0
07C0
0DC0
1CE0
1FE0
3FE0
70E0
70E0
E0E0
ENDCHAR
STARTCHAR 00C1
ENCODING 193
SWIDTH 660 0
DWIDTH 11 0
BBX 12 14 -1 0
BITMAP
0070
00E0
0000
01C0
03C0
07C0
07C0
0DC0
1CE0
1FE0
3FE0
70E0
70E0
E0E0
ENDCHAR
STARTCHAR 00C2
ENCODING 194
SWIDTH 660 0
DWIDTH 11 0
BBX 11 15 -1 0
BITMAP
0040
03E0
0760
0000
01C0
03C0
07C0
07C0
0DC0
1CE0
1FE0
3FE0
70E0
70E0
E0E0
ENDCHAR
STARTCHAR 00C3
ENCODING 195
SWIDTH 660 0
DWIDTH 11 0
BBX 12 14 -1 0
BITMAP
03F0
07E0
0000
01C0
03C0
07C0
07C0
0DC0
1CE0
1FE0
3FE0
70E0
70E0
E0E0
ENDCHAR
STARTCHAR 00C4
ENCODING 196
SWIDTH 660 0
DWIDTH 11 0
BBX 11 14 -1 1
BITMAP
0360
0360
0000
01C0
03C0
07C0
07C0
0DC0
1CE0
1FE0
3FE0
70E0
70E0
E0E0
ENDCHAR
STARTCHAR 00C5
ENCODING 197
SWIDTH 660 0
DWIDTH 11 0
BBX 11 15 -1 0
BITMAP
00C0
0140
01C0
0000
01C0
03C0
07C0
07C0
0DC0
1CE0
1FE0
3FE0
70E0
70E0
E0E0
ENDCHAR
STARTCHAR 00C6
ENCODING 198
SWIDTH 900 0
DWIDTH 15 0
BBX 16 11 -1 0
BITMAP
03FF
03FF
0670
0EF0
0FFE
1FFE
38E0
38E0
71E0
61FE
E1FE
ENDCHAR
STARTCHAR 00C7
ENCODING 199
SWIDTH 720 0
DWIDTH 12 0
BBX 11 15 1 -4
BITMAP
07E0
1FE0
3E20
7800
F000
E000
E000
E040
F1C0
7FC0
3F00
0800
0C00
0C00
1800
ENDCHAR
STARTCHAR 00C8
ENCODING 200
SWIDTH 540 0
DWIDTH 9 0
BBX 10 14 0 0
BITMAP
0E00
0600
0000
1FC0
3FC0
3800
3800
3F80
7F80
7800
7000
7000
7F80
FF00
ENDCHAR
STARTCHAR 00C9
ENCODING 201
SWIDTH 540 0
DWIDTH 9 0
BBX 10 14 0 0
BITMAP
01C0
0300
0000
1FC0
3FC0
3800
3800
3F80
7F80
7800
7000
7000
7F80
FF00
ENDCHAR
STARTCHAR 00CA
ENCODING 202
SWIDTH 540 0
DWIDTH 9 0
BBX 10 15 0 0
BITMAP
0100
0780
1CC0
0000
1FC0
3FC0
3800
3800
3F80
7F80
7800
7000
7000
7F80
FF00
ENDCHAR
STARTCHAR 00CB
ENCODING 203
SWIDTH 540 0
DWIDTH 9 0
BBX 10 14 0 1
BITMAP
0DC0
0C80
0000
1FC0
3FC0
3800
3800
3F80
7F80
7800
7000
7000
7F80
FF00
ENDCHAR
STARTCHAR 00CC
ENCODING 204
SWIDTH 360 0
DWIDTH 6 0
BBX 6 14 0 0
BITMAP
38
08
00
1C
3C
38
38
38
38
78
70
70
70
F0
ENDCHAR
STARTCHAR 00CD
ENCODING 205
SWIDTH 360 0
DWIDTH 6 0
BBX 8 14 0 0
BITMAP
07
0C
00
1C
3C
38
38
38
38
78
70
70
70
F0
ENDCHAR
STARTCHAR 00CE
ENCODING 206
SWIDTH 360 0
DWIDTH 6 0
BBX 8 15 0 0
BITMAP
04
1E
73
00
1C
3C
38
38
38
38
78
70
70
70
F0
ENDCHAR
STARTCHAR 00CF
ENCODING 207
SWIDTH 360 0
DWIDTH 6 0
BBX 7 14 0 0
BITMAP
3E
36
00
1C
3C
38
38
38
38
78
70
70
70
F0
ENDCHAR
STARTCHAR 00D0
ENCODING 208
SWIDTH 720 0
DWIDTH 12 0
BBX 12 11 0 0
BITMAP
1F80
3FE0
38F0
3870
7E70
FE70
78F0
70E0
73E0
7FC0
FF00
ENDCHAR
STARTCHAR 00D1
ENCODING 209
SWIDTH 780 0
DWIDTH 13 0
BBX 13 14 0 0
BITMAP
03F0
07E0
0000
1C18
3C38
3E38
3F38
3730
37F0
73F0
73F0
71E0
60E0
E0E0
ENDCHAR
STARTCHAR 00D2
ENCODING 210
SWIDTH 780 0
DWIDTH 13 0
BBX 12 14 1 0
BITMAP
0700
0300
0000
07C0
1FE0
78F0
7070
F070
E070
E0F0
E0E0
F1C0
7F80
3F00
ENDCHAR
STARTCHAR 00D3
ENCODING 211
SWIDTH 780 0
DWIDTH 13 0
BBX 12 14 1 0
BITMAP
00E0
0180
0000
07C0
1FE0
78F0
7070
F070
E070
E0F0
E0E0
F1C0
7F80
3F00
ENDCHAR
STARTCHAR 00D4
ENCODING 212
SWIDTH 780 0
DWIDTH 13 0
BBX 12 15 1 0
BITMAP
0080
03C0
0E60
0000
07C0
1FE0
78F0
7070
F070
E070
E0F0
E0E0
F1C0
7F80
3F00
ENDCHAR
STARTCHAR 00D5
ENCODING 213
SWIDTH 780 0
DWIDTH 13 0
BBX 12 14 1 0
BITMAP
07E0
0DE0
0000
07C0
1FE0
78F0
7070
F070
E070
E0F0
E0E0
F1C0
7F80
3F00
ENDCHAR
STARTCHAR 00D6
ENCODING 214
SWIDTH 780 0
DWIDTH 13 0
BBX 12 14 1 1
BITMAP
06E0
06C0
0000
07C0
1FE0
78F0
7070
F070
E070
E0F0
E0E0
F1C0
7F80
3F00
ENDCHAR
STARTCHAR 00D7
ENCODING 215
SWIDTH 600 0
DWIDTH 10 0
BBX 7 7 2 2
BITMAP
04
CE
7C
38
78
EC
C6
ENDCHAR
STARTCHAR 00D8
ENCODING 216
SWIDTH 780 0
DWIDTH 13 0
BBX 12 11 1 -1
BITMAP
07F0
1FE0
78F0
71F0
E370
E670
EC70
F8E0
F1C0
7F80
FF00
ENDCHAR
STARTCHAR 00D9
ENCODING 217
SWIDTH 780 0
DWIDTH 13 0
BBX 12 14 1 0
BITMAP
0700
0300
0000
3870
7870
7070
70F0
F0E0
E0E0
E0E0
E1E0
F3C0
7FC0
3C00
ENDCHAR
STARTCHAR 00DA
ENCODING 218
SWIDTH 780 0
DWIDTH 13 0
BBX 12 14 1 0
BITMAP
00C0
0180
0000
3870
7870
7070
70F0
F0E0
E0E0
E0E0
E1E0
F3C0
7FC0
3C00
ENDCHAR
STARTCHAR 00DB
ENCODING 219
SWIDTH 780 0
DWIDTH 13 0
BBX 12 15 1 0
BITMAP
0080
03C0
0EE0
0000
3870
7870
7070
70F0
F0E0
E0E0
E0E0
E1E0
F3C0
7FC0
3C00
ENDCHAR
STARTCHAR 00DC
ENCODING 220
SWIDTH 780 0
DWIDTH 13 0
BBX 12 14 1 1
BITMAP
06C0
06C0
0000
3870
7870
7070
70F0
F0E0
E0E0
E0E0
E1E0
F3C0
7FC0
3C00
ENDCHAR
STARTCHAR 00DD
ENCODING 221
SWIDTH 540 0
DWIDTH 9 0
BBX 10 14 1 0
BITMAP
0380
0600
0000
E1C0
E1C0
7380
7700
7E00
3C00
3C00
3800
3800
3800
7800
ENDCHAR
STARTCHAR 00DE
ENCODING 222
SWIDTH 600 0
DWIDTH 10 0
BBX 11 11 0 0
BITMAP
1C00
3F80
3FC0
39E0
38E0
79C0
73C0
7F80
7E00
7000
F000
ENDCHAR
STARTCHAR 00DF
ENCODING 223
SWIDTH 600 0
DWIDTH 10 0
BBX 10 11 0 0
BITMAP
0F80
1F80
39C0
3980
7700
7780
7380
7380
E380
EF00
FE00
ENDCHAR
STARTCHAR 00E0
ENCODING 224
SWIDTH 600 0
DWIDTH 10 0
BBX 10 11 0 0
BITMAP
0600
0600
0200
0000
0F80
3FC0
7180
E380
E780
FBC0
7700
ENDCHAR
STARTCHAR 00E1
ENCODING 225
SWIDTH 600 0
DWIDTH 10 0
BBX 10 11 0 0
BITMAP
0180
0300
0200
0000
0F80
3FC0
7180
E380
E780
FBC0
7700
ENDCHAR
STARTCHAR 00E2
ENCODING 226
SWIDTH 600 0
DWIDTH 10 0
BBX 10 11 0 0
BITMAP
0380
0F80
1CC0
0000
0F80
3FC0
7180
E380
E780
FBC0
7700
ENDCHAR
STARTCHAR 00E3
ENCODING 227
SWIDTH 600 0
DWIDTH 10 0
BBX 10 10 0 0
BITMAP
0FC0
1B80
0000
0F80
3FC0
7180
E380
E780
FBC0
7700
ENDCHAR
STARTCHAR 00E4
ENCODING 228
SWIDTH 600 0
DWIDTH 10 0
BBX 10 10 0 0
BITMAP
0D80
0D80
0000
0F80
3FC0
7180
E380
E780
FBC0
7700
ENDCHAR
STARTCHAR 00E5
ENCODING 229
SWIDTH 600 0
DWIDTH 10 0
BBX 10 11 0 0
BITMAP
0300
0580
0700
0000
0F80
3FC0
7180
E380
E780
FBC0
7700
ENDCHAR
STARTCHAR 00E6
ENCODING 230
SWIDTH 900 0
DWIDTH 15 0
BBX 14 7 0 0
BITMAP
0FF8
3FFC
718C
E3F8
E784
FFFC
71F0
ENDCHAR
STARTCHAR 00E7
ENCODING 231
SWIDTH 480 0
DWIDTH 8 0
BBX 8 11 0 -4
BITMAP
1F
3F
70
E0
E0
FE
7C
10
18
30
20
ENDCHAR
STARTCHAR 00E8
ENCODING 232
SWIDTH 540 0
DWIDTH 9 0
BBX 9 11 0 0
BITMAP
0C00
0C00
0400
0000
1F00
3F80
7380
FF00
E100
7F00
3E00
ENDCHAR
STARTCHAR 00E9
ENCODING 233
SWIDTH 540 0
DWIDTH 9 0
BBX 9 11 0 0
BITMAP
0300
0600
0600
0000
1F00
3F80
7380
FF00
E100
7F00
3E00
ENDCHAR
STARTCHAR 00EA
ENCODING 234
SWIDTH 540 0
DWIDTH 9 0
BBX 9 11 0 0
BITMAP
0700
0F00
1980
0000
1F00
3F80
7380
FF00
E100
7F00
3E00
ENDCHAR
STARTCHAR 00EB
ENCODING 235
SWIDTH 540 0
DWIDTH 9 0
BBX 9 10 0 0
BITMAP
1980
1900
0000
1F00
3F80
7380
FF00
E100
7F00
3E00
ENDCHAR
STARTCHAR 00EC
ENCODING 236
SWIDTH 300 0
DWIDTH 5 0
BBX 5 11 0 0
BITMAP
70
30
10
00
70
70
70
70
E0
F8
E0
ENDCHAR
STARTCHAR 00ED
ENCODING 237
SWIDTH 300 0
DWIDTH 5 0
BBX 6 11 0 0
BITMAP
0C
18
30
00
70
70
70
70
E0
F8
E0
ENDCHAR
STARTCHAR 00EE
ENCODING 238
SWIDTH 300 0
DWIDTH 5 0
BBX 6 11 0 0
BITMAP
18
7C
CC
00
70
70
70
70
E0
F8
E0
ENDCHAR
STARTCHAR 00EF
ENCODING 239
SWIDTH 300 0
DWIDTH 5 0
BBX 6 10 0 0
BITMAP
6C
6C
00
70
70
70
70
E0
F8
E0
ENDCHAR
STARTCHAR 00F0
ENCODING 240
SWIDTH 540 0
DWIDTH 9 0
BBX 9 11 0 0
BITMAP
0700
0700
0F00
0300
1F80
7F80
7380
F380
F380
7F00
3E00
ENDCHAR
STARTCHAR 00F1
ENCODING 241
SWIDTH 600 0
DWIDTH 10 0
BBX 10 10 0 0
BITMAP
1E80
1B80
0000
7780
7F80
7380
7380
E300
E7C0
E700
ENDCHAR
STARTCHAR 00F2
ENCODING 242
SWIDTH 540 0
DWIDTH 9 0
BBX 9 11 0 0
BITMAP
0C00
0C00
0600
0000
1F00
7F80
7380
F380
F380
7F00
3E00
ENDCHAR
STARTCHAR 00F3
ENCODING 243
SWIDTH 540 0
DWIDTH 9 0
BBX 9 11 0 0
BITMAP
0300
0700
0600
0000
1F00
7F80
7380
F380
F380
7F00
3E00
ENDCHAR
STARTCHAR 00F4
ENCODING 244
SWIDTH 540 0
DWIDTH 9 0
BBX 9 11 0 0
BITMAP
0700
0F00
1980
0000
1F00
7F80
7380
F380
F380
7F00
3E00
ENDCHAR
STARTCHAR 00F5
ENCODING 245
SWIDTH 540 0
DWIDTH 9 0
BBX 9 10 0 0
BITMAP
1F80
1700
0000
1F00
7F80
7380
F380
F380
7F00
3E00
ENDCHAR
STARTCHAR 00F6
ENCODING 246
SWIDTH 540 0
DWIDTH 9 0
BBX 9 10 0 0
BITMAP
1980
1980
0000
1F00
7F80
7380
F380
F380
7F00
3E00
ENDCHAR
STARTCHAR 00F7
ENCODING 247
SWIDTH 600 0
DWIDTH 10 0
BBX 8 9 1 1
BITMAP
08
1C
18
00
FF
00
18
1C
08
ENDCHAR
STARTCHAR 00F8
ENCODING 248
SWIDTH 540 0
DWIDTH 9 0
BBX 9 7 0 0
BITMAP
1F80
7F80
7780
EF80
F380
7F00
7E00
ENDCHAR
STARTCHAR 00F9
ENCODING 249
SWIDTH 600 0
DWIDTH 10 0
BBX 10 11 0 0
BITMAP
0C00
0600
0600
0000
31C0
7380
7380
7380
E780
FBC0
7700
ENDCHAR
STARTCHAR 00FA
ENCODING 250
SWIDTH 600 0
DWIDTH 10 0
BBX 10 11 0 0
BITMAP
0380
0300
0600
0000
31C0
7380
7380
7380
E780
FBC0
7700
ENDCHAR
STARTCHAR 00FB
ENCODING 251
SWIDTH 600 0
DWIDTH 10 0
BBX 10 11 0 0
BITMAP
0700
0D80
1980
0000
31C0
7380
7380
7380
E780
FBC0
7700
ENDCHAR
STARTCHAR 00FC
ENCODING 252
SWIDTH 600 0
DWIDTH 10 0
BBX 10 10 0 0
BITMAP
0D80
0D80
0000
31C0
7380
7380
7380
E780
FFC0
7300
ENDCHAR
STARTCHAR 00FD
ENCODING 253
SWIDTH 480 0
DWIDTH 8 0
BBX 10 15 -1 -4
BITMAP
0300
0700
0600
0000
31C0
3980
3B00
3F00
3E00
1C00
1C00
3800
7000
7000
E000
ENDCHAR
STARTCHAR 00FE
ENCODING 254
SWIDTH 600 0
DWIDTH 10 0
BBX 10 15 -1 -4
BITMAP
1C00
1C00
1C00
1C00
39C0
3FC0
3CC0
39C0
71C0
7F80
7F00
7000
7000
E000
E000
ENDCHAR
STARTCHAR 00FF
ENCODING 255
SWIDTH 480 0
DWIDTH 8 0
BBX 10 14 -1 -4
BITMAP
1980
1980
0000
31C0
3980
3B00
3F00
3E00
1C00
1C00
3800
7000
7000
E000
ENDCHAR
STARTCHAR 0131
ENCODING 305
SWIDTH 300 0
DWIDTH 5 0
BBX 5 7 0 0
BITMAP
70
70
70
70
E0
F8
E0
ENDCHAR
STARTCHAR 0141
ENCODING 321
SWIDTH 540 0
DWIDTH 9 0
BBX 8 11 0 0
BITMAP
1C
1C
3C
3B
3F
7C
F8
70
70
7F
7F
ENDCHAR
STARTCHAR 0142
ENCODING 322
SWIDTH 420 0
DWIDTH 7 0
BBX 7 11 0 0
BITMAP
1C
1C
1C
1C
3E
78
F8
38
70
7C
70
ENDCHAR
STARTCHAR 0152
ENCODING 338
SWIDTH 1020 0
DWIDTH 17 0
BBX 17 11 1 0
BITMAP
07FF80
1FFF00
78F000
707000
F07F00
E07F00
E0E000
E0E000
F1E000
7FFE00
3FFE00
ENDCHAR
STARTCHAR 0153
ENCODING 339
SWIDTH 900 0
DWIDTH 15 0
BBX 14 7 0 0
BITMAP
1F78
7FFC
738C
F3F8
F384
7FFC
3CF0
ENDCHAR
STARTCHAR 0160
ENCODING 352
SWIDTH 480 0
DWIDTH 8 0
BBX 9 14 0 1
BITMAP
0D80
0700
0000
0F80
3F00
3800
7800
3C00
3E00
1E00
0F00
0E00
FE00
F800
ENDCHAR
STARTCHAR 0161
ENCODING 353
SWIDTH 360 0
DWIDTH 6 0
BBX 8 11 0 0
BITMAP
33
1E
1C
00
3C
7C
70
78
38
F8
F0
ENDCHAR
STARTCHAR 0178
ENCODING 376
SWIDTH 540 0
DWIDTH 9 0
BBX 10 14 1 1
BITMAP
1B80
1900
0000
E1C0
E1C0
7380
7700
7E00
3C00
3C00
3800
3800
3800
7800
ENDCHAR
STARTCHAR 017D
ENCODING 381
SWIDTH 600 0
DWIDTH 10 0
BBX 11 15 0 0
BITMAP
0040
0DC0
0700
0000
7FE0
7FC0
0380
0780
0F00
0E00
1C00
3C00
3800
7FC0
FFC0
ENDCHAR
STARTCHAR 017E
ENCODING 382
SWIDTH 420 0
DWIDTH 7 0
BBX 8 11 0 0
BITMAP
33
16
1C
00
7E
7C
1C
38
70
FE
FE
ENDCHAR
STARTCHAR 0192
ENCODING 402
SWIDTH 540 0
DWIDTH 9 0
BBX 10 13 0 -2
BITMAP
03C0
07C0
0E00
0E00
1F80
3F00
1C00
1C00
1C00
1C00
3800
7800
F000
ENDCHAR
STARTCHAR 02C6
ENCODING 710
SWIDTH 480 0
DWIDTH 8 0
BBX 6 3 2 8
BITMAP
38
6C
CC
ENDCHAR
STARTCHAR 02C7
ENCODING 711
SWIDTH 480 0
DWIDTH 8 0
BBX 6 3 3 8
BITMAP
CC
F8
60
ENDCHAR
STARTCHAR 02C9
ENCODING 713
SWIDTH 480 0
DWIDTH 8 0
BBX 6 2 2 9
BITMAP
7C
FC
ENDCHAR
STARTCHAR 02D8
ENCODING 728
SWIDTH 480 0
DWIDTH 8 0
BBX 5 3 3 8
BITMAP
88
98
F0
ENDCHAR
STARTCHAR 02D9
ENCODING 729
SWIDTH 480 0
DWIDTH 8 0
BBX 3 3 4 8
BITMAP
C0
E0
40
ENDCHAR
STARTCHAR 02DA
ENCODING 730
SWIDTH 480 0
DWIDTH 8 0
BBX 3 3 4 8
BITMAP
E0
A0
E0
ENDCHAR
STARTCHAR 02DB
ENCODING 731
SWIDTH 480 0
DWIDTH 8 0
BBX 3 3 4 -3
BITMAP
80
80
E0
ENDCHAR
STARTCHAR 02DC
ENCODING 732
SWIDTH 480 0
DWIDTH 8 0
BBX 7 2 2 9
BITMAP
76
FC
ENDCHAR
STARTCHAR 02DD
ENCODING 733
SWIDTH 480 0
DWIDTH 8 0
BBX 6 3 3 8
BITMAP
6C
48
D0
ENDCHAR
STARTCHAR 03A9
ENCODING 937
SWIDTH 780 0
DWIDTH 13 0
BBX 12 12 0 0
BITMAP
03C0
0FF0
1C70
3830
3030
7030
7070
7060
3060
30C0
F9E0
FBE0
ENDCHAR
STARTCHAR 03BC
ENCODING 956
SWIDTH 600 0
DWIDTH 10 0
BBX 11 11 -1 -4
BITMAP
18E0
39C0
39C0
39C0
73C0
7FE0
7980
6000
6000
E000
E000
ENDCHAR
STARTCHAR 03C0
ENCODING 960
SWIDTH 660 0
DWIDTH 11 0
BBX 12 9 0 0
BITMAP
7FF0
7FE0
19C0
39C0
3180
3180
7380
6380
E380
ENDCHAR
STARTCHAR 2013
ENCODING 8211
SWIDTH 540 0
DWIDTH 9 0
BBX 8 2 1 3
BITMAP
FF
FF
ENDCHAR
STARTCHAR 2014
ENCODING 8212
SWIDTH 780 0
DWIDTH 13 0
BBX 12 2 1 3
BITMAP
FFF0
FFF0
ENDCHAR
STARTCHAR 2018
ENCODING 8216
SWIDTH 300 0
DWIDTH 5 0
BBX 3 4 2 7
BITMAP
C0
E0
60
60
ENDCHAR
STARTCHAR 2019
ENCODING 8217
SWIDTH 300 0
DWIDTH 5 0
BBX 4 4 1 6
BITMAP
30
30
60
E0
ENDCHAR
STARTCHAR 201A
ENCODING 8218
SWIDTH 300 0
DWIDTH 5 0
BBX 3 4 0 -3
BITMAP
60
60
E0
C0
ENDCHAR
STARTCHAR 201C
ENCODING 8220
SWIDTH 480 0
DWIDTH 8 0
BBX 7 4 2 7
BITMAP
CC
EC
6C
6E
ENDCHAR
STARTCHAR 201D
ENCODING 8221
SWIDTH 480 0
DWIDTH 8 0
BBX 7 5 2 6
BITMAP
66
6E
EC
D8
08
ENDCHAR
STARTCHAR 201E
ENCODING 8222
SWIDTH 480 0
DWIDTH 8 0
BBX 7 5 0 -3
BITMAP
66
6E
EC
D8
08
ENDCHAR
STARTCHAR 2020
ENCODING 8224
SWIDTH 600 0
DWIDTH 10 0
BBX 8 11 2 0
BITMAP
1C
1C
FF
FF
38
38
30
30
70
70
70
ENDCHAR
STARTCHAR 2021
ENCODING 8225
SWIDTH 600 0
DWIDTH 10 0
BBX 9 11 1 0
BITMAP
0E00
0E00
7F80
7F80
1C00
1C00
1C00
FF00
FF00
3800
3800
ENDCHAR
STARTCHAR 2022
ENCODING 8226
SWIDTH 300 0
DWIDTH 5 0
BBX 4 3 1 4
BITMAP
60
F0
60
ENDCHAR
STARTCHAR 2026
ENCODING 8230
SWIDTH 960 0
DWIDTH 16 0
BBX 14 3 0 0
BITMAP
2108
F39C
E39C
ENDCHAR
STARTCHAR 2030
ENCODING 8240
SWIDTH 1080 0
DWIDTH 18 0
BBX 17 11 1 0
BITMAP
38C000
6CC000
CD8000
FB0000
760000
0C0000
0DC700
1B7D80
365900
63DF00
400000
ENDCHAR
STARTCHAR 2039
ENCODING 8249
SWIDTH 300 0
DWIDTH 5 0
BBX 4 6 1 1
BITMAP
30
70
C0
C0
C0
C0
ENDCHAR
STARTCHAR 203A
ENCODING 8250
SWIDTH 300 0
DWIDTH 5 0
BBX 4 6 0 1
BITMAP
30
30
30
30
60
C0
ENDCHAR
STARTCHAR 2044
ENCODING 8260
SWIDTH 180 0
DWIDTH 3 0
BBX 8 11 -2 0
BITMAP
01
03
06
04
0C
18
30
60
60
C0
80
ENDCHAR
STARTCHAR 20AC
ENCODING 8364
SWIDTH 600 0
DWIDTH 10 0
BBX 10 11 1 0
BITMAP
07C0
0F80
1C00
3800
FE00
7000
FE00
7000
7900
3F80
1F00
ENDCHAR
STARTCHAR 2113
ENCODING 8467
SWIDTH 540 0
DWIDTH 9 0
BBX 9 13 0 0
BITMAP
0700
0F80
1D80
1980
1900
1B00
3E00
3C00
3800
F000
B180
3F00
3C00
ENDCHAR
STARTCHAR 2122
ENCODING 8482
SWIDTH 780 0
DWIDTH 13 0
BBX 11 6 2 5
BITMAP
FE20
6760
67E0
4FA0
CD20
C960
ENDCHAR
STARTCHAR 2126
ENCODING 8486
SWIDTH 780 0
DWIDTH 13 0
BBX 12 12 0 0
BITMAP
03C0
0FF0
1C70
3830
3030
7030
7070
7060
3060
30C0
F9E0
FBE0
ENDCHAR
STARTCHAR 212E
ENCODING 8494
SWIDTH 960 0
DWIDTH 16 0
BBX 14 11 2 0
BITMAP
0FC0
3020
6010
6018
E018
E01C
FFE0
6000
6000
2010
1FE0
ENDCHAR
STARTCHAR 2202
ENCODING 8706
SWIDTH 600 0
DWIDTH 10 0
BBX 9 13 1 0
BITMAP
1E00
3F80
2380
0180
0180
3D80
7F80
E380
C300
C700
CE00
FC00
7800
ENDCHAR
STARTCHAR 2206
ENCODING 8710
SWIDTH 720 0
DWIDTH 12 0
BBX 11 12 0 0
BITMAP
0380
0780
07C0
0DC0
1DC0
19C0
39C0
30C0
70C0
60E0
FFE0
FFE0
ENDCHAR
STARTCHAR 220F
ENCODING 8719
SWIDTH 840 0
DWIDTH 14 0
BBX 12 13 2 -2
BITMAP
FFF0
FFF0
30C0
30C0
30C0
30C0
30C0
30C0
30C0
30C0
30C0
30C0
30C0
ENDCHAR
STARTCHAR 2211
ENCODING 8721
SWIDTH 720 0
DWIDTH 12 0
BBX 9 12 2 -1
BITMAP
FF80
FF80
7000
3800
1C00
0E00
0C00
1800
3800
7000
FF80
FF80
ENDCHAR
STARTCHAR 2212
ENCODING 8722
SWIDTH 600 0
DWIDTH 10 0
BBX 8 2 1 5
BITMAP
FF
FF
ENDCHAR
STARTCHAR 2215
ENCODING 8725
SWIDTH 180 0
DWIDTH 3 0
BBX 8 11 -2 0
BITMAP
01
03
06
04
0C
18
30
60
60
C0
80
ENDCHAR
STARTCHAR 2219
ENCODING 8729
SWIDTH 300 0
DWIDTH 5 0
BBX 3 3 1 2
BITMAP
60
E0
40
ENDCHAR
STARTCHAR 221A
ENCODING 8730
SWIDTH 720 0
DWIDTH 12 0
BBX 10 17 2 -3
BITMAP
0040
00C0
00C0
00C0
0080
0180
0180
0180
7100
F300
3300
1B00
1A00
1A00
0E00
0E00
0C00
ENDCHAR
STARTCHAR 221E
ENCODING 8734
SWIDTH 840 0
DWIDTH 14 0
BBX 11 6 2 2
BITMAP
71C0
DB60
8E20
8620
8A20
F9E0
ENDCHAR
STARTCHAR 222B
ENCODING 8747
SWIDTH 540 0
DWIDTH 9 0
BBX 6 18 2 -3
BITMAP
0C
1C
38
30
30
30
30
30
30
30
30
30
30
30
30
30
F0
E0
ENDCHAR
STARTCHAR 2248
ENCODING 8776
SWIDTH 600 0
DWIDTH 10 0
BBX 8 6 2 2
BITMAP
60
BB
8E
00
FB
9E
ENDCHAR
STARTCHAR 2260
ENCODING 8800
SWIDTH 660 0
DWIDTH 11 0
BBX 8 9 2 0
BITMAP
04
04
FF
08
18
10
FF
20
20
ENDCHAR
STARTCHAR 2264
ENCODING 8804
SWIDTH 660 0
DWIDTH 11 0
BBX 8 11 2 0
BITMAP
01
07
1C
70
C0
70
1C
07
01
00
FF
ENDCHAR
STARTCHAR 2265
ENCODING 8805
SWIDTH 660 0
DWIDTH 11 0
BBX 8 11 2 0
BITMAP
C0
F0
1C
07
01
0F
3C
E0
80
00
FF
ENDCHAR
STARTCHAR 25CA
ENCODING 9674
SWIDTH 720 0
DWIDTH 12 0
BBX 8 13 3 -1
BITMAP
18
3C
3C
66
66
C3
C3
C3
66
66
3C
3C
18
ENDCHAR
STARTCHAR FB01
ENCODING 64257
SWIDTH 660 0
DWIDTH 11 0
BBX 11 11 0 0
BITMAP
0F00
1EE0
38E0
3800
7FC0
FFC0
71C0
7380
7380
73E0
E380
ENDCHAR
STARTCHAR FB02
ENCODING 64258
SWIDTH 660 0
DWIDTH 11 0
BBX 11 11 0 0
BITMAP
0FE0
1FE0
38E0
39C0
7DC0
FDC0
71C0
7380
7380
73E0
E380
ENDCHAR
ENDFONT
